# xmcd CD database file
#
# Track frame offsets:
#	150
#	23958
#	46632
#	65787
#	85564
#	108414
#	130058
#	155644
#	176421
#	194763
#	217751
#	232099
#	245061
#	272584
#	295460
#	315374
#
# Disc length: 4379 seconds
#
# Revision: 0
# Processed by: cddbd v1.5.2PL0 Copyright (c) Steve Scherf et al.
# Submitted via: CDex 1.51
#
DISCID=e3111910
DTITLE=Various Artist - Ultimate Blues
DYEAR=2005
DGENRE=Blues
TTITLE0=Stop Watching Your Enemy - Koko Taylor
TTITLE1=The Moon Is Full - Albert Collins
TTITLE2=Diggin' My Own Grave - Tinsley Ellos
TTITLE3=The Love You Lost On The Way - Roomful of Blues
TTITLE4=Gonna Send You Back to Georgia - Hound Dog Taylor and the HouseRockers
TTITLE5=Got My Mojo Working - Clarence Brown
TTITLE6=You've Been Gone Too Long - Buddy Guy
TTITLE7=I Believe In You - Luther Allison
TTITLE8=Backbone Man - Lonnie Brooks
TTITLE9=Real Love - Little Charlie and the Nightcats
TTITLE10=Natural Man - Lil'  Ed and the Blues Imperials
TTITLE11=Turn Around And Say Goodbye - CJ Chenier
TTITLE12=I'm Gonna Take It All Back - Son Seals
TTITLE13=I This It Was The Wine - The Siegel-Schwall Band
TTITLE14=B Movie Boxcar Blues - Delbert McClinton
TTITLE15=Pie In The Sky - Shemekia Copeland
EXTD=YEAR: 2005
EXTT0=
EXTT1=
EXTT2=
EXTT3=
EXTT4=
EXTT5=
EXTT6=
EXTT7=
EXTT8=
EXTT9=
EXTT10=
EXTT11=
EXTT12=
EXTT13=
EXTT14=
EXTT15=
PLAYORDER=
